<?xml version="1.0" standalone="no"?>
<!DOCTYPE svg PUBLIC "-//W3C//DTD SVG 20010904//EN"
 "http://www.w3.org/TR/2001/REC-SVG-20010904/DTD/svg10.dtd">
<svg version="1.0" xmlns="http://www.w3.org/2000/svg"
 width="1312.000000pt" height="1312.000000pt" viewBox="0 0 1312.000000 1312.000000"
 preserveAspectRatio="xMidYMid meet">
<metadata>
Created by potrace 1.11, written by Peter Selinger 2001-2013
</metadata>
<g transform="translate(0.000000,1312.000000) scale(0.100000,-0.100000)"
fill="#000000" stroke="none">
<path d="M3369 10156 c-2 -2 -33 -6 -69 -10 -76 -7 -97 -11 -210 -37 -128 -29
-183 -44 -205 -58 -5 -3 -14 -6 -20 -6 -5 -1 -23 -7 -40 -14 -116 -52 -137
-61 -145 -61 -6 0 -10 -4 -10 -10 0 -6 -3 -9 -7 -8 -8 3 -164 -81 -173 -92 -3
-3 -23 -17 -45 -30 -22 -13 -45 -29 -52 -35 -15 -12 -26 -21 -83 -65 -81 -62
-259 -246 -318 -329 -9 -13 -26 -35 -38 -50 -29 -37 -135 -211 -128 -211 3 0
-3 -12 -13 -27 -24 -35 -86 -179 -112 -258 -21 -65 -43 -141 -55 -192 -3 -10
-5 -20 -6 -23 -1 -3 -2 -8 -1 -13 1 -4 -4 -28 -10 -55 -5 -26 -12 -74 -15
-107 -6 -79 -11 -128 -14 -140 -1 -5 -1 -12 0 -15 6 -15 4 -73 -3 -77 -4 -2
-4 -9 -1 -15 4 -6 8 -47 10 -92 4 -92 9 -150 17 -186 4 -20 17 -81 32 -160 11
-53 68 -222 97 -287 12 -26 22 -50 23 -53 7 -25 103 -199 121 -221 8 -8 14
-19 14 -23 0 -9 52 -80 63 -84 4 -2 7 -8 7 -14 0 -35 360 -398 395 -398 3 0
13 -6 20 -12 33 -30 45 -38 55 -38 5 0 10 -4 10 -9 0 -5 14 -14 30 -21 17 -7
30 -16 30 -21 0 -5 4 -9 9 -9 4 0 41 -18 82 -41 106 -59 336 -151 369 -148 3
0 19 -5 35 -11 17 -7 37 -13 45 -15 144 -30 185 -37 245 -43 133 -13 466 -5
515 12 8 2 33 7 55 10 53 7 234 55 260 68 11 6 21 11 22 10 4 -2 34 8 63 21
14 6 27 11 30 12 3 0 15 6 28 13 12 7 22 10 22 8 0 -3 26 9 58 26 136 73 187
102 192 108 3 3 23 17 45 30 36 21 73 49 154 115 78 63 245 239 303 320 4 5
18 24 31 40 13 17 41 59 63 95 21 36 41 67 44 70 5 5 93 181 95 190 1 6 43
118 52 140 3 8 7 18 8 23 2 4 3 8 5 10 1 1 3 9 5 17 1 8 8 35 16 60 15 55 16
57 24 100 3 19 11 55 16 80 12 51 18 113 24 222 2 43 6 82 10 88 3 5 3 10 -2
10 -4 0 -8 16 -8 35 0 19 4 35 8 35 5 0 5 4 2 10 -6 9 -8 31 -19 158 -3 34 -8
73 -11 85 -3 12 -7 34 -10 50 -10 57 -17 83 -37 156 -11 42 -23 81 -26 86 -4
6 -8 16 -9 23 -7 28 -10 39 -26 76 -9 21 -17 40 -17 42 0 10 -89 183 -113 221
-15 24 -27 47 -27 53 0 5 -4 10 -10 10 -5 0 -10 5 -10 11 0 23 -149 208 -245
305 -55 56 -136 129 -180 163 -44 34 -85 66 -92 71 -7 6 -17 10 -23 10 -5 0
-10 4 -10 9 0 5 -9 13 -20 16 -11 3 -26 12 -33 18 -27 25 -220 122 -307 154
-111 42 -89 35 -190 63 -83 24 -90 25 -200 44 -19 3 -48 9 -65 12 -34 6 -390
15 -396 10z"/>
<path d="M7257 8544 c-1 -1 -27 -5 -57 -8 -58 -6 -103 -13 -132 -22 -10 -3
-30 -7 -45 -10 -41 -7 -104 -31 -201 -76 -124 -58 -290 -192 -371 -299 -9 -12
-25 -33 -37 -47 -59 -76 -131 -228 -163 -344 -30 -110 -33 -132 -37 -273 -3
-132 11 -245 42 -348 16 -53 75 -186 103 -232 13 -22 23 -41 22 -43 -1 -1 4
-9 11 -16 7 -8 24 -29 38 -48 75 -100 148 -169 256 -245 34 -24 66 -43 72 -43
6 0 12 -4 14 -8 3 -8 88 -50 153 -75 144 -56 326 -79 500 -63 90 8 211 35 270
60 17 8 50 22 75 32 44 19 192 108 224 135 184 157 294 314 364 524 28 83 35
111 48 205 17 118 5 305 -26 421 -14 52 -18 61 -61 163 -114 273 -361 500
-649 599 -41 14 -86 28 -100 30 -82 15 -151 25 -190 27 -98 5 -121 5 -123 4z"/>
<path d="M10317 8543 c-1 -1 -29 -4 -62 -8 -33 -3 -68 -9 -77 -11 -10 -3 -30
-7 -45 -10 -69 -12 -113 -28 -237 -89 -288 -141 -496 -395 -581 -711 -23 -84
-29 -142 -29 -269 0 -146 6 -195 39 -311 23 -78 97 -250 114 -264 3 -3 13 -17
21 -31 100 -175 365 -382 563 -440 26 -7 47 -16 47 -19 0 -3 8 -6 18 -7 42 -3
62 -8 62 -14 0 -4 8 -6 17 -5 9 2 37 -1 62 -6 50 -10 264 -14 278 -5 5 3 36 9
68 12 66 8 218 55 280 88 22 12 43 21 47 22 3 0 44 25 89 55 86 56 227 188
269 250 13 19 27 37 30 40 15 12 108 184 117 215 1 6 11 35 22 65 11 31 22 68
25 83 2 15 7 30 9 34 9 15 20 129 22 228 5 347 -159 676 -446 892 -67 50 -252
148 -299 157 -3 1 -9 4 -15 7 -5 4 -30 10 -55 14 -25 4 -49 10 -55 13 -12 8
-22 9 -105 17 -64 6 -190 12 -193 8z"/>
<path d="M3107 5474 c-1 -1 -94 -4 -207 -8 -113 -3 -221 -8 -240 -11 -19 -2
-57 -6 -85 -9 -27 -3 -59 -7 -70 -9 -11 -3 -41 -7 -66 -11 -42 -6 -89 -14
-114 -20 -27 -6 -122 -26 -140 -29 -11 -2 -27 -6 -35 -9 -20 -7 -171 -49 -190
-53 -8 -2 -15 -4 -15 -5 0 -1 -7 -3 -15 -5 -18 -4 -113 -38 -155 -56 -16 -7
-32 -13 -35 -13 -3 -1 -11 -5 -17 -9 -7 -5 -13 -6 -13 -3 0 3 -46 -17 -103
-43 -57 -26 -121 -56 -142 -67 -22 -10 -42 -20 -45 -23 -3 -4 -22 -14 -44 -24
-45 -21 -262 -156 -326 -203 -54 -40 -87 -65 -103 -79 -7 -5 -34 -28 -62 -50
-56 -45 -55 -44 -156 -142 -103 -99 -220 -230 -243 -272 -5 -9 -15 -20 -22
-26 -20 -16 -164 -237 -164 -252 0 -7 -4 -13 -8 -13 -5 0 -14 -16 -22 -35 -8
-19 -17 -35 -22 -35 -4 0 -8 -4 -8 -9 0 -5 -20 -52 -45 -105 -25 -53 -45 -101
-45 -107 0 -5 -4 -17 -9 -27 -10 -18 -51 -136 -56 -162 -2 -8 -9 -35 -16 -60
-7 -25 -14 -54 -16 -65 -2 -11 -10 -53 -18 -92 -8 -40 -15 -76 -14 -80 1 -5 0
-10 -1 -13 -4 -10 -9 -66 -15 -172 l-6 -108 6561 0 6560 0 -5 103 c-3 56 -6
109 -6 117 0 8 -4 38 -9 65 -5 28 -11 66 -14 85 -3 19 -7 46 -10 60 -3 14 -8
34 -10 45 -2 11 -9 31 -14 45 -5 14 -10 27 -10 30 -1 12 -14 67 -22 90 -31 91
-77 210 -92 238 -10 18 -18 39 -18 47 0 8 -4 15 -10 15 -5 0 -10 9 -10 19 0
11 -3 21 -7 23 -5 2 -23 32 -42 68 -69 133 -211 330 -337 469 -143 158 -379
358 -544 461 -30 19 -56 38 -58 42 -2 5 -7 8 -11 8 -5 0 -48 23 -97 51 -96 56
-247 129 -386 188 -27 11 -48 17 -48 14 0 -3 -6 -1 -12 5 -13 10 -177 68 -213
75 -11 2 -27 7 -35 10 -18 7 -100 30 -120 33 -8 2 -33 7 -55 13 -22 5 -51 12
-65 15 -14 2 -32 7 -40 10 -8 2 -33 7 -55 10 -22 3 -51 8 -65 11 -14 2 -41 7
-60 9 -19 3 -51 7 -70 10 -55 9 -154 16 -285 22 -97 5 -7173 12 -7178 8z"/>
</g>
</svg>
